<svg width="920" height="920" viewBox="0 0 243.41666 243.41667" xmlns="http://www.w3.org/2000/svg"><ellipse ry="111.12499" rx="121.33035" cy="119.13801" cx="121.70833" style="fill:#fc9;fill-opacity:1;stroke:none;stroke-width:.25801468;stroke-linecap:butt;stroke-linejoin:miter;stroke-miterlimit:4;stroke-dasharray:none;stroke-opacity:1;paint-order:markers stroke fill"/><path d="m18.898809 237.06655 3.85585-82.35713 69.395439 44.51783z" style="fill:#fc9;fill-opacity:1;stroke:none;stroke-width:.23997708;stroke-linecap:butt;stroke-linejoin:miter;stroke-miterlimit:4;stroke-dasharray:none;stroke-opacity:1;paint-order:markers stroke fill"/><text y="192.08757" x="22.330833" style="font-style:normal;font-weight:400;font-size:176.3888855px;line-height:1.25;font-family:sans-serif;letter-spacing:0;word-spacing:0;fill:#000;fill-opacity:1;stroke:none;stroke-width:.26458332"><tspan style="font-style:normal;font-variant:normal;font-weight:400;font-stretch:normal;font-size:160px;font-family:sans-serif;-inkscape-font-specification:'sans-serif Bold';stroke-width:.26458332" y="170" x="40">шкн</tspan></text><g><path d="m195.3054 164.04177a3.968746 3.9687448.0 013.96859 3.96875v33.07289a2.6459007 2.6458998.0 005.2918.0v-13.40379l.456-.022c1.67799-.064 3.37079-.042 4.31799.142.71.142 1.556.508 2.3708.963.408.2222.794.7778.794 1.6616v10.65741a2.6458974 2.6458965.0 005.29179.0v-8.28145l.56-.052c1.672-.126 3.0904-.052 3.74659.2116.624.2434 1.588 1.09539 2.5716 2.27541.428.508.794 1.0054 1.058 1.3706v7.12256a2.6458306 2.6458297.0 105.2916.0v-5.29164h1.81a5.2916613 5.2916596.0 015.26519 5.82082l-1.43399 14.36685a13.229152 13.229149.0 01-1.678 5.24403l-7.382 12.92225a2.6458306 2.6458297.0 01-2.2966 1.33359h-33.34797a2.6458306 2.6458297.0 01-2.3654-1.46059l-6.5192-13.04395-13.29278-22.14558a2.7357889 2.735788.0 014.281-3.33904l12.75298 12.75289a2.6458306 2.6458297.0 004.519-1.86799v-41.01037a3.968746 3.9687448.0 013.96881-3.96875zm9.26039 18.3409v-14.37215a9.2604074 9.2604044.0 10-18.5208.0v34.62334l-8.23919-8.23913a8.0274502 8.0274476.0 00-12.55718 9.80016l13.18158 21.97626 6.42939 12.85874a7.9374921 7.9374895.0 007.1014 4.38678h33.34797a7.9374921 7.9374895.0 006.8898-4.0005l7.38199-12.91694a18.520815 18.520809.0 002.3494-7.35011l1.434-14.36687a10.583323 10.583319.0 00-10.53039-11.63633h-3.07439a27.061555 27.061546.0 00-1.032-1.3124c-1.01001-1.2118-2.69881-3.00566-4.65681-3.78884-1.926-.7726-4.47679-.6986-6.12779-.5716l-.698.064a6.6674933 6.6674912.0 00-2.9634-3.39723 13.927652 13.927647.0 00-3.90519-1.524c-1.64-.328-3.9106-.307-5.55619-.2434zm11.08078 10.71561z" style="stroke-width:5.29166"/><path style="fill:#fff;stroke-width:.291169" d="m190.94409 237.71682c-.53938-.26924-1.70834-2.28763-4.51312-7.79267-2.20389-4.32566-6.49163-11.92945-10.26368-18.20139-4.94179-8.21692-6.47849-10.99886-6.47849-11.72822.0-1.34761 1.09678-2.38553 2.52084-2.38553 1.03579.0 1.44869.35559 8.09315 6.96983 4.53837 4.51772 7.28538 7.03906 7.80805 7.16661.45419.11083 1.19139.0373 1.68795-.1684 1.78573-.73967 1.72764.0389 1.72764-23.15417.0-23.9268-.12517-22.59815 2.23649-23.74141 1.12548-.54483 1.45993-.58834 2.38716-.31053.59307.17768 1.46594.72757 1.93972 1.22197l.86142.89892.14558 17.8647.14559 17.86471.70588.75115c.97939 1.0422 2.94225 1.06025 3.96604.0365l.71469-.71468v-7.32896-7.32895l2.40858.12641c2.73331.14347 4.51225.83818 5.08241 1.98479.25223.50724.36327 2.51943.36626 6.63731.004 5.88333.007 5.91255.71898 6.62408 1.02344 1.02343 2.98645 1.00569 3.96604-.0358.67656-.71936.70974-.94308.79871-5.38661l.0928-4.63609h2.04844 2.04845l1.7167 1.75443 1.71671 1.75443v3.93781c0 4.53861.2743 5.41298 1.86256 5.93715 1.19079.39299 2.84294-.15409 3.35504-1.11097.17304-.32331.31461-1.97222.31461-3.66424v-3.07641l.94629.002c3.41748.006 5.84704 2.25273 5.80746 5.37077-.0458 3.60937-1.54481 16.23798-2.10523 17.73582-.75852 2.02733-7.96037 14.67863-8.89018 15.61716l-.72117.72791-17.24524.0722c-13.31737.0557-17.41104-.0106-17.97316-.29117z"/></g></svg>
